# xmcd
#
# Track frame offsets:
#	150
#	13731
#	28169
#	43250
#	55205
#	66156
#	81968
#	100317
#	112548
#	127583
#	140541
#	156099
#	172047
#	187417
#	197765
#	212359
#
# Disc length: 2986 seconds
#
# Revision: 1
# Processed by: cddbd v1.5.2PL0 Copyright (c) Steve Scherf et al.
# Submitted via: audiograbber 1.83.01
#
DISCID=de0ba810
DTITLE=Various Artist - Superhits der Volksmusik - CD 1
DYEAR=1998
DGENRE=Other
TTITLE0=Gaby Albrecht - Eine Handvoll Heimatland
TTITLE1=Marianne and Michael - Komm´ in die Berg´ 
TTITLE2=Coro Croz Corona - La Montanara
TTITLE3=Maria und Margot Hellwig - Treue Bergvagabunden
TTITLE4=Die Zillertaler - Herzerltanz
TTITLE5=Franzl Lang - Das Kufsteinlied (die Perle Tirols)
TTITLE6=Heino - Blau blüht der Enzian
TTITLE7=Roy Black und die Fischerchöre - Hoch auf dem gelben Wagen
TTITLE8=Tony - Schöne Maid
TTITLE9=Florian Silbereisen - Herz-Schmerz-Polka
TTITLE10=Karel Gott - Rosamunde
TTITLE11=Die Wildecker Herzbuben - Herzilein
TTITLE12=Maria Mathis - Erzherzog Johann Jodler
TTITLE13=Billy Mo - Ein kauf´ mir lieber einen Tirolerhut
TTITLE14=Die Plattlinger Isarspatzen - In München steht ein Hofbräuhaus
TTITLE15=Michael Klostermann und seine Musikanten - Drei weiße Birken
EXTD=
EXTT0=
EXTT1=
EXTT2=
EXTT3=
EXTT4=
EXTT5=
EXTT6=
EXTT7=
EXTT8=
EXTT9=
EXTT10=
EXTT11=
EXTT12=
EXTT13=
EXTT14=
EXTT15=
PLAYORDER=
